<?xml version="1.0" encoding="UTF-8"?>
<svg id="Layer_1" data-name="Layer 1" xmlns="http://www.w3.org/2000/svg" viewBox="0 0 841.89 595.28">
  <defs>
    <style>
      .cls-1 {
        fill: #8dd7f7;
        stroke-width: 0px;
      }
    </style>
  </defs>
  <path class="cls-1" d="M836.85,361.35c-22.28,62.56-68.21,109.92-124.12,135.59-54.18,24.88-117.72,29.48-178.25,7.9l-160.82-57.02-132.64-47.26h-.03s-.03-.01-.06-.02l-10.84-3.87c-.7-.24-1.38-.47-2.09-.71l-.91-.29c-63.55-20.91-132.51,12.64-155.11,76-11.25,31.66-8.86,64.85,4.13,93.15,7.06,15.38,17.26,29.28,30.08,40.73h741.77v-288.32c-2.25,14.76-5.91,29.53-11.12,44.12Z"/>
  <path class="cls-1" d="M11.12,247.17c22.28-62.56,68.21-109.92,124.12-135.59,54.18-24.88,117.72-29.48,178.25-7.9l160.82,57.02,132.64,47.26h.03s.03.01.06.02l10.84,3.87c.7.24,1.38.47,2.09.71l.91.29c63.55,20.91,132.51-12.64,155.11-76,11.25-31.66,8.86-64.85-4.13-93.15-7.06-15.38-17.26-29.28-30.08-40.73H0v288.32c2.25-14.76,5.91-29.53,11.12-44.12Z"/>
</svg>