<?xml version="1.0" encoding="UTF-8"?>
<svg id="Layer_2" data-name="Layer 2" xmlns="http://www.w3.org/2000/svg" viewBox="0 0 2303.5 627.09">
  <defs>
    <style>
      .cls-1 {
        fill: #8dd7f7;
      }

      .cls-1, .cls-2, .cls-3, .cls-4 {
        stroke-width: 0px;
      }

      .cls-2 {
        fill: none;
      }

      .cls-3 {
        fill: #003260;
      }

      .cls-4 {
        fill: #1d8fcd;
      }
    </style>
  </defs>
  <g id="Layer_1-2" data-name="Layer 1">
    <g>
      <g>
        <path class="cls-2" d="M1776.44,190.2c-54.43,0-90.45,36.03-90.45,85.37v66.18h179.74v-65.39c0-49.34-35.64-86.15-89.29-86.15Z"/>
        <path class="cls-2" d="M1160.09,194.9h-61.48v237.3h61.48c68.14,0,112.39-50.12,112.39-118.65s-44.25-118.65-112.39-118.65Z"/>
        <path class="cls-1" d="M857.01,313.55l-46.2-16.45c-27.41-10.18-39.16-27.41-39.16-51.69,0-34.07,23.89-55.22,61.48-55.22,23.11,0,49.73,8.23,62.26,19.19v-21.14c-14.09-10.18-41.51-16.45-63.04-16.45-48.56,0-80.67,29.37-80.67,73.23,0,32.89,17.23,57.95,52.08,69.3l44.25,15.67c27.81,9.4,41.9,25.85,41.9,50.91,0,34.46-26.63,56-67.74,56-28.2-.39-56.39-10.57-73.23-26.63v20.36c18.01,14.89,47,24.67,74.8,24.67,50.12,0,86.54-30.54,86.54-73.61,0-33.29-19.58-57.57-53.26-68.14Z"/>
        <rect class="cls-1" x="972.92" y="176.49" width="19.58" height="274.11"/>
        <path class="cls-1" d="M1160.09,176.49h-81.06v274.11h81.06c79.88,0,132.35-57.57,132.35-137.05s-50.91-137.06-132.35-137.06ZM1160.09,432.2h-61.48v-237.3h61.48c68.14,0,112.39,48.94,112.39,118.65s-44.25,118.65-112.39,118.65Z"/>
        <rect class="cls-1" x="1358.62" y="176.49" width="19.58" height="274.11"/>
        <path class="cls-1" d="M1554.02,313.55l-46.2-16.45c-27.41-10.18-39.16-27.41-39.16-51.69,0-34.07,23.89-55.22,61.48-55.22,23.11,0,49.73,8.23,62.26,19.19v-21.14c-14.09-10.18-41.51-16.45-63.04-16.45-48.56,0-80.67,29.37-80.67,73.23,0,32.89,17.23,57.95,52.08,69.3l44.25,15.67c27.81,9.4,41.9,25.85,41.9,50.91,0,34.46-26.63,56-67.74,56-28.2-.39-56.39-10.57-73.23-26.63v20.36c18.01,14.89,47,24.67,74.8,24.67,50.12,0,86.54-30.54,86.54-73.61,0-33.29-19.58-57.57-53.26-68.14Z"/>
        <path class="cls-1" d="M1775.66,171.79c-65,0-109.25,43.08-109.25,104.94v173.87h19.58v-90.45h179.74v90.45h19.58v-173.87c0-61.87-43.86-104.94-109.64-104.94ZM1865.72,341.74h-179.74v-66.18c0-49.34,36.03-85.37,90.45-85.37s89.29,36.81,89.29,86.15v65.39Z"/>
        <rect class="cls-1" x="1967.92" y="176.49" width="19.58" height="274.11"/>
        <polygon class="cls-1" points="2283.93 176.49 2283.93 407.92 2083.43 176.49 2074.04 176.49 2074.04 450.6 2093.62 450.6 2093.62 218.78 2295.28 450.6 2303.5 450.6 2303.5 176.49 2283.93 176.49"/>
      </g>
      <g>
        <circle class="cls-1" cx="313.55" cy="313.55" r="313.54" transform="translate(-129.88 313.55) rotate(-45)"/>
        <path class="cls-4" d="M328.37,507.4c-12.99,12.78-29.87,19.19-46.78,19.29-11.06.03-22.08-2.62-32.07-7.96l1.34,1.34c.28.28.59.59.86.83-10.06-5.03-19.5-11.82-27.8-20.36l-110.23-113.02c-40.55-41.54-39.72-108.13,1.83-148.68,15.57-15.16,34.59-24.53,54.46-28.14,2.93,27.94,14.99,55.08,36.21,76.61l64.87,66.14,53.63,54.46s.03,0,.03.03l4.37,4.44c.28.28.55.59.83.86l.38.38c24.84,26.49,24.11,68.14-1.93,93.77Z"/>
        <path class="cls-4" d="M524.27,389.45c-15.43,15.05-34.28,24.39-53.98,28.08-2.72-28.32-14.81-55.91-36.34-77.75l-5.58-5.68c-1.52-1.65-3.1-3.31-4.69-4.96l-54.6-55.46-53.64-54.46-.03-.03h-.04l-5.55-5.68c-24.84-26.52-24.11-68.14,1.89-93.77,13.02-12.78,29.9-19.22,46.78-19.29,8.1-.03,16.16,1.34,23.8,4.24t.07.03c12.23,5.24,23.63,12.95,33.48,23.05l110.23,113.02c40.55,41.54,39.72,108.13-1.83,148.68Z"/>
        <path class="cls-3" d="M470.88,429.31c.17,33.41-12.64,66.9-38.31,92.18-50.29,49.5-131,49.16-180.85-.59-.28-.24-.59-.55-.86-.83l-1.34-1.34c9.99,5.34,21.01,7.99,32.07,7.96,16.91-.1,33.79-6.51,46.78-19.29,26.04-25.63,26.77-67.28,1.93-93.77l-.38-.38c-.28-.28-.55-.59-.83-.86l-4.37-4.44s-.03-.03-.03-.03l-53.63-54.46-64.87-66.14c-21.22-21.53-33.28-48.68-36.21-76.61-.48-4.27-.69-8.61-.72-12.92-.17-33.41,12.61-66.86,38.31-92.15,50.57-49.81,131.9-49.16,181.71,1.38l.07.1,1.24,1.27c-2.65-1.45-5.41-2.65-8.2-3.69t-.07-.03c-7.65-2.89-15.71-4.27-23.8-4.24-16.88.07-33.76,6.51-46.78,19.29-26.01,25.63-26.73,67.24-1.89,93.77l5.55,5.68h.04l.03.03,53.64,54.46,54.6,55.46c1.58,1.65,3.17,3.31,4.69,4.96l5.58,5.68c21.53,21.84,33.62,49.43,36.34,77.75.38,3.93.59,7.85.59,11.78Z"/>
      </g>
    </g>
  </g>
</svg>